<?xml version="1.0" encoding="utf-8"?>
<svg version="1.1" id="Layer_1" x="0px" y="0px" enable-background="new 0 0 566.929 102.84" xmlns="http://www.w3.org/2000/svg">
  <g id="g3" transform="matrix(0.352778, 0, 0, 0.352778, 0, 0)">
    <g id="g5" style="fill:#ffffff;fill-opacity:1">
      <g id="layer2" style="fill:#ffffff;fill-opacity:1">
        <polygon id="polygon3542" points="51.491,11.127 39.613,32.324 51.491,27.772 62.829,32.113 65.865,28.707      65.865,5.553    " style="fill-opacity: 1;"/>
        <polygon id="polygon3558" points="88.391,87.288 66.938,59.29 66.938,96.307 51.491,102.842 51.491,39.606      66.938,33.69 88.391,64.354 88.391,25.369 102.98,19.742 102.98,81.161    " style="fill-opacity: 1;"/>
        <polygon id="polygon3560" points="14.589,87.288 28.277,81.227 14.589,54.653    " style="fill-opacity: 1; fill: rgb(153, 153, 153);"/>
      </g>
      <g id="layer3" style="fill:#ffffff;fill-opacity:1">
        <polygon id="polygon3538" points="29.178,19.742 36.044,33.689 39.613,32.324 51.491,11.127 37.117,5.535    " style="fill-opacity: 1; fill: rgb(204, 204, 204);"/>
        <polygon id="polygon3540" points="62.829,32.113 73.807,19.742 88.391,25.369 88.391,64.354 66.938,33.69    " style="fill-opacity: 1; fill: rgb(204, 204, 204);"/>
        <polygon id="polygon3552" points="14.589,25.369 0,19.742 0,81.161 14.589,87.288 14.589,54.653 36.044,96.307      51.491,102.842 51.491,39.606 36.044,33.689 36.044,65.792    " style="fill-opacity: 1; fill: rgb(204, 204, 204);"/>
      </g>
      <g id="layer4" style="fill:#ffffff;fill-opacity:1">
        <polygon id="polygon3554" points="36.044,33.689 36.044,65.792 14.589,25.369 29.178,19.742    " style="fill-opacity: 1; fill: rgb(153, 153, 153);"/>
        <polygon id="polygon3556" points="88.391,87.288 66.938,59.29 66.938,74.586 71.321,80.731    " style="fill-opacity: 1; fill: rgb(153, 153, 153);"/>
      </g>
      <g id="layer5" style="fill:#ffffff;fill-opacity:1">
        <polygon id="polygon3544" points="66.938,33.689 51.491,39.606 36.044,33.689 51.491,27.772    " style="fill-opacity: 1; fill: rgb(153, 153, 153);"/>
        <polygon id="polygon3546" points="73.802,19.742 88.391,14.129 102.98,19.742 88.391,25.369    " style="fill-opacity: 1; fill: rgb(153, 153, 153);"/>
        <polygon id="polygon3548" points="0,19.742 14.589,14.129 29.178,19.742 14.589,25.369    " style="fill-opacity: 1; fill: rgb(153, 153, 153);"/>
        <polygon id="polygon3550" points="65.865,5.553 51.491,0 37.117,5.535 51.491,11.127    " style="fill-opacity: 1; fill: rgb(153, 153, 153);"/>
      </g>
    </g>
    <g id="g23" style="fill:#ffffff;fill-opacity:1">
      <g id="g3516" style="fill:#ffffff;fill-opacity:1">
        <polygon id="polygon3518" points="154.07,81.252 175.447,81.252 175.447,33.752 160.984,33.752 160.984,60.989      160.859,60.989 151.323,33.752 129.948,33.752 129.948,81.252 144.403,81.252 144.403,53.834 144.533,53.834    " style="fill-opacity: 1;"/>
        <polygon id="polygon3520" points="234.714,81.252 256.089,81.252 256.089,33.752 241.636,33.752 241.636,60.989      241.505,60.989 231.968,33.752 210.595,33.752 210.595,81.252 225.056,81.252 225.056,53.834 225.181,53.834    " style="fill-opacity: 1;"/>
        <polygon id="polygon3522" points="373.578,81.252 394.957,81.252 394.957,33.752 380.498,33.752 380.498,60.989      380.369,60.989 370.833,33.752 349.457,33.752 349.457,81.252 363.914,81.252 363.914,53.834 364.041,53.834    " style="fill-opacity: 1;"/>
        <polygon id="polygon3524" points="184.179,33.752 202.009,33.752 202.009,81.252 184.179,81.252    " style="fill-opacity: 1;"/>
        <polygon id="polygon3526" points="272.591,46.655 261.261,46.655 261.261,33.752 301.784,33.752 301.784,46.655      290.416,46.655 290.416,81.252 272.591,81.252    " style="fill-opacity: 1;"/>
        <polygon id="polygon3536" points="307.05,33.739 342.31,33.739 342.31,46.303 324.597,46.303 324.597,51.27      340.906,51.27 340.906,63.448 324.597,63.448 324.597,68.778 342.875,68.778 342.875,81.237 307.05,81.237    " style="fill-opacity: 1;"/>
      </g>
      <g id="layer6" style="fill:#ffffff;fill-opacity:1">
        <path id="path3528" d="M402.63,33.752h21.123c18.016,0,23.75,10.197,23.75,24.276     c0,14.342-8.848,23.225-22.684,23.225H402.63V33.752L402.63,33.752z M420.083,70.459h1.738c2.869,0,4.789-0.879,5.912-2.787     c1.184-1.975,1.318-5.572,1.318-10.172c0-4.604-0.135-8.194-1.318-10.172c-1.123-1.91-3.043-2.789-5.912-2.789h-1.738V70.459     L420.083,70.459z" style="fill-opacity: 1;"/>
        <path id="path3530" d="M475.451,32.506c15.521,0,23.244,10.193,23.244,24.995     c0,14.805-7.725,25.002-23.244,25.002c-15.523,0-23.246-10.197-23.246-25.002C452.205,42.699,459.925,32.506,475.451,32.506     L475.451,32.506z M475.451,70.465c2.738,0,4.801-1.346,4.801-12.965c0-11.357-1.939-12.961-4.801-12.961     c-2.865,0-4.801,1.604-4.801,12.961C470.65,69.12,472.708,70.465,475.451,70.465L475.451,70.465z" style="fill-opacity: 1;"/>
        <polygon id="polygon3566" points="154.07,81.252 175.447,81.252 175.447,33.752 160.984,33.752 160.984,60.989      160.859,60.989 151.323,33.752 129.948,33.752 129.948,81.252 144.403,81.252 144.403,53.834 144.533,53.834    " style="fill-opacity: 1;"/>
        <polygon id="polygon3568" points="234.714,81.252 256.089,81.252 256.089,33.752 241.636,33.752 241.636,60.989      241.505,60.989 231.968,33.752 210.595,33.752 210.595,81.252 225.056,81.252 225.056,53.834 225.181,53.834    " style="fill-opacity: 1;"/>
        <polygon id="polygon3570" points="373.578,81.252 394.957,81.252 394.957,33.752 380.498,33.752 380.498,60.989      380.369,60.989 370.833,33.752 349.457,33.752 349.457,81.252 363.914,81.252 363.914,53.834 364.041,53.834    " style="fill-opacity: 1;"/>
        <polygon id="polygon3572" points="184.179,33.752 202.009,33.752 202.009,81.252 184.179,81.252    " style="fill-opacity: 1;"/>
        <polygon id="polygon3574" points="272.591,46.655 261.261,46.655 261.261,33.752 301.784,33.752 301.784,46.655      290.416,46.655 290.416,81.252 272.591,81.252    " style="fill-opacity: 1;"/>
        <polygon id="polygon3576" points="307.05,33.739 342.31,33.739 342.31,46.303 324.597,46.303 324.597,51.27      340.906,51.27 340.906,63.448 324.597,63.448 324.597,68.778 342.875,68.778 342.875,81.237 307.05,81.237    " style="fill-opacity: 1;"/>
      </g>
      <g id="layer7" style="fill:#ffffff;fill-opacity:1">
        <path id="path3532" d="M530.583,27.436c-0.949-0.083-1.871-0.044-3.158,0.014     c-7.521,0.348-10.563,3.553-11.594,7.174h0.182c1.873-1.637,4.188-2.401,7.289-2.401c5.965,0,11.414,4.338,11.414,12.476     c0,7.788-5.986,13.852-14.02,13.852c-10.584,0-15.186-8.083-15.186-16.75c0-7.041,2.498-13.004,6.598-16.85     c3.902-3.615,8.932-5.441,15.09-5.582c1.631-0.094,2.6,0,3.385,0.071V27.436L530.583,27.436z M520.562,50.892     c2.439,0,3.918-2.491,3.918-5.673c-0.02-2.686-1.25-5.613-4.52-5.613c-1.998,0-3.555,1.266-4.143,2.795     c-0.227,0.469-0.313,1.137-0.313,2.27c0.209,3.035,1.672,6.222,4.998,6.222H520.562L520.562,50.892z" style="fill-opacity: 1;"/>
        <path id="path3534" d="M553.365,57.911v-8.524h-15.846v-6.811l12.723-22.671h12.66v21.673h4.027v7.809h-4.027     v8.524H553.365L553.365,57.911z M553.365,41.578v-6.531c0-2.414,0.145-4.922,0.268-7.565h-0.207     c-1.178,2.565-2.203,5.007-3.543,7.657l-3.113,6.326l-0.035,0.115L553.365,41.578L553.365,41.578z" style="fill-opacity: 1;"/>
      </g>
    </g>
  </g>
</svg>