<?xml version="1.0" encoding="utf-8"?>
<svg id="svg2" version="1.1" enable-background="new 0 0 566.929 98.574" y="0px" x="0px" xmlns="http://www.w3.org/2000/svg">
  <g id="g4" fill="#fff" transform="matrix(0.350755, 0, 0, 0.350755, 1.146263, 1.552796)">
    <polygon id="_43443024" points="542.31 0.917 566.93 0.917 532.22 54.913 526.59 97.041 504.34 97.041 510.86 48.973 488.61 0.917 512.64 0.917 524.51 28.215"/>
    <polygon id="_43441624" points="283.03 59.066 312.39 59.066 315.36 37.706 286.29 37.706 288.37 22.276 322.18 22.276 325.45 0.917 269.38 0.917 256.03 97.041 311.8 97.041 314.77 75.671 280.95 75.671"/>
    <path id="_43775888" d="m112.15 49.565 7.416-19.874 2.375 19.874h-9.79zm-8.01 18.987h20.172l3.563 28.48h36.488l16.91-52.213 8.309 52.213h19.283l21.359-55.179 3.561 55.179h21.359l-5.934-96.119h-25.514l-19.88 50.727-7.715-50.727h-22.842l-26.105 78.912-9.791-78.912h-28.48l-31.744 79.8 4.154-31.149h-38.571l-2.672 18.987h16.912l-1.188 6.526c-2.967 1.778-9.789 2.076-12.459 2.076s-22.545-1.779-21.656-23.14c0.882-21.358 29.362-41.234 63.181-30.258l3.266-20.47c-22.548-7.712-81.766-3.396-87.815 49.543-3.559 31.149 24.921 45.983 43.906 45.688 10.977 0.594 23.438-3.561 27.887-5.935l-1.482 4.451h22.547l10.977-28.48z"/>
    <path id="_44102912" d="m464.58 0.028c-15.428-0.594-37.678 8.306-45.094 44.204-7.416 35.894 12.459 50.431 30.852 52.804 18.396 2.373 44.205-9.196 48.951-43.609 4.75-34.414-12.17-52.508-34.71-53.399zm-2.37 20.47c6.229 0 19.578 4.154 16.314 29.071-3.262 24.92-18.688 27.887-24.326 27.293-5.637-0.594-17.207-4.448-13.943-27.293 3.27-22.841 15.43-29.368 21.96-29.071z"/>
    <path id="_44104296" d="m370.83 37.706h12.461c9.197 0 10.977-5.934 11.271-8.305 0.297-2.375-2.371-7.122-7.117-7.122h-14.537l-2.07 15.427zm-5.34 37.971h16.912c9.195 0 11.271-7.119 11.566-9.493 0.299-2.373-2.371-7.118-7.117-7.118h-18.986l-2.37 16.611zm-24.91 21.361 13.35-96.118h40.938c9.793 0 24.031 11.274 22.252 26.403-1.779 15.13-6.527 16.02-9.791 18.393 5.045 4.447 10.088 11.568 8.012 24.918-2.078 13.352-13.055 26.403-32.338 26.403l-42.42 0.001z"/>
  </g>
  <g transform="matrix(0.43535, 0, 0, 0.43535, 54.328117, 11.641122)">
    <g transform="matrix(1, 0, 0, 1, 148.411667, 42.724567)">
      <g>
        <path id="path5256" d="M -53.991 36.923 C -54.685 34.821 -56.517 32.82 -56.517 32.82 C -56.517 32.82 -59.271 29.244 -64.679 28.024 C -69.31 27.055 -72.948 29.097 -72.948 29.097 C -72.948 29.097 -76.252 30.422 -78.735 33.159 C -82.69 36.966 -83.827 42.522 -83.827 42.522 C -83.827 42.522 -85.342 47.36 -82.942 51.191 L -80.333 54.347 C -76.651 57.419 -72.716 57.733 -72.716 57.733 C -72.716 57.733 -69.539 58.449 -65.835 57.481 C -62.597 56.828 -60.24 55.229 -60.24 55.229 C -60.24 55.229 -54.873 52.263 -53.402 46.203 L -53.991 36.923 Z M -62.347 47.001 C -62.347 47.001 -64.492 50.748 -69.204 50.304 C -74.738 49.737 -75.389 44.877 -75.389 44.877 C -75.389 44.877 -76.148 41.3 -72.739 38.185 C -69.287 35.283 -65.69 35.724 -65.69 35.724 C -65.69 35.724 -63.272 35.955 -62.028 39.954 C -60.431 45.045 -62.347 47.001 -62.347 47.001" style="fill-opacity: 1; fill: rgb(255, 255, 255);"/>
        <path id="path5262" d="M -36.109 47.066 C -37.88 46.675 -40.716 47.401 -40.716 47.401 C -40.716 47.401 -44.671 48.851 -45.282 48.831 C -45.512 48.495 -46.017 42.035 -45.871 39.448 C -45.786 34.881 -46.167 31.158 -46.167 31.158 C -46.167 31.158 -46.355 26.76 -48.712 24.152 C -51.489 21.352 -53.427 22.553 -54.541 23.225 C -57.213 25.624 -55.971 28.547 -55.971 28.547 L -54.581 32.483 C -54.581 32.483 -53.909 34.167 -53.992 36.922 L -53.403 46.202 C -53.403 47.443 -52.392 55.795 -52.392 55.795 C -52.392 55.795 -52.29 58.51 -49.679 58.994 C -47.006 59.436 -44.378 58.109 -43.263 57.584 C -42.147 57.059 -40.675 56.596 -40.675 56.596 C -40.675 56.596 -39.454 56.322 -38.234 56.218 C -35.373 55.943 -34.342 55.439 -34.342 55.439 C -34.342 55.439 -33.235 55.273 -32.489 54.217 C -31.745 53.164 -30.844 48.222 -36.109 47.066" style="fill-opacity: 1; fill: rgb(255, 255, 255);"/>
        <path id="path5264" d="M -82.943 51.189 C -84.823 50.625 -86.981 50.999 -86.981 50.999 C -86.981 50.999 -93.083 51.587 -96.261 50.914 C -101.183 50.053 -101.018 44.75 -101.018 44.75 C -101.018 44.75 -101.183 41.235 -98.217 36.481 C -94.557 30.609 -90.517 29.558 -90.517 29.558 C -90.517 29.558 -89.509 29.18 -88.562 29.684 C -87.972 33.091 -84.669 33.07 -84.669 33.07 C -84.669 33.07 -79.914 33.387 -80.147 27.623 C -80.693 22.887 -85.258 22.236 -87.174 21.793 C -92.915 20.762 -96.642 23.835 -96.642 23.835 C -96.642 23.835 -100.492 25.917 -105.099 33.176 C -108.237 37.678 -108.614 41.214 -108.614 41.214 C -108.614 41.214 -108.992 42.056 -108.845 45.802 C -108.929 48.725 -107.834 50.851 -107.834 50.851 C -107.834 50.851 -106.173 55.883 -100.913 57.944 C -97.714 59.269 -93.042 59.248 -93.042 59.248 C -93.042 59.248 -88.519 59.185 -85.049 58.995 C -83.155 59.142 -82.249 58.153 -82.249 58.153 C -82.249 58.153 -80.126 56.765 -80.335 54.345 C -80.335 54.345 -80.747 51.845 -82.943 51.189" style="fill-opacity: 1; fill: rgb(255, 255, 255);"/>
        <path id="path5258" d="M -6.503 35.808 C -10.184 29.791 -16.665 28.886 -16.665 28.886 C -16.665 28.886 -18.727 28.191 -23.144 28.779 C -31.435 30.358 -34.318 36.733 -34.318 36.733 C -34.318 36.733 -37.286 41.403 -36.107 47.064 L -32.485 54.217 C -29.814 56.721 -28.72 56.721 -28.553 56.87 C -25.016 58.469 -20.914 57.543 -20.914 57.543 C -20.914 57.543 -15.737 57.038 -11.003 53.356 C -7.217 50.579 -5.575 46.497 -5.575 46.497 L -5.073 41.02 L -6.503 35.808 L -6.503 35.808 Z M -16.581 48.095 C -22.535 51.672 -26.282 47.758 -26.282 47.758 C -26.282 47.758 -27.943 46.664 -28.301 43.339 C -28.556 39.49 -24.724 37.49 -24.724 37.49 C -24.724 37.49 -22.704 36.248 -20.179 36.438 C -17.654 36.627 -16.857 36.459 -14.813 37.975 C -12.879 39.722 -13.005 41.004 -13.005 41.004 C -13.005 41.004 -12.31 45.34 -16.581 48.095" style="fill-opacity: 1; fill: rgb(255, 255, 255);"/>
        <path id="path5260" d="M -5.577 46.497 C -5.577 46.497 -5.45 49.862 -5.977 50.684 C -6.692 52.219 -6.586 53.713 -6.586 53.713 C -6.586 53.713 -7.072 58.258 -1.809 59.014 C 1.808 58.993 2.248 55.984 2.312 54.701 C 2.522 53.692 2.439 48.998 2.439 48.998 L 7.131 52.828 C 7.131 52.828 10.539 55.69 12.541 57.351 C 14.625 58.992 15.148 59.287 15.148 59.287 C 15.148 59.287 15.592 59.811 17.188 59.622 C 18.475 59.645 19.652 58.486 19.652 58.486 C 19.652 58.486 21.144 57.395 21.523 55.479 C 21.985 53.207 20.219 52.091 20.219 52.091 C 20.219 52.091 13.698 46.831 9.279 43.211 C 12.245 41.592 13.676 40.477 13.676 40.477 C 13.676 40.477 17.801 37.742 18.684 33.553 C 19.905 28.945 16.433 27.137 16.433 27.137 C 16.433 27.137 14.265 25.58 12.435 24.759 C 7.825 22.508 3.534 22.97 3.534 22.97 C 3.534 22.97 -2.567 22.55 -6.543 27.453 C -8.373 29.83 -7.236 32.945 -7.236 32.945 C -7.236 32.945 -7.01 33.444 -6.501 35.806 C -5.481 40.559 -5.577 46.497 -5.577 46.497 L -5.577 46.497 Z M 2.419 37.154 L 2.018 31.663 C 2.018 31.663 5.868 31.578 7.468 31.851 C 10.625 32.335 10.456 33.22 10.456 33.22 C 10.456 33.22 10.35 34.335 7.951 35.43 C 5.344 36.692 2.419 37.154 2.419 37.154" style="fill-opacity: 1; fill: rgb(255, 255, 255);"/>
      </g>
    </g>
  </g>
</svg>