<?xml version="1.0" encoding="utf-8"?>
<svg id="svg2" version="1.1" enable-background="new 0 0 566.929 98.574" y="0px" x="0px" xmlns="http://www.w3.org/2000/svg">
  <g id="g4" fill="#fff" transform="matrix(0.350755, 0, 0, 0.350755, 1.146263, 1.552796)">
    <polygon id="_43443024" points="542.31 0.917 566.93 0.917 532.22 54.913 526.59 97.041 504.34 97.041 510.86 48.973 488.61 0.917 512.64 0.917 524.51 28.215"/>
    <polygon id="_43441624" points="283.03 59.066 312.39 59.066 315.36 37.706 286.29 37.706 288.37 22.276 322.18 22.276 325.45 0.917 269.38 0.917 256.03 97.041 311.8 97.041 314.77 75.671 280.95 75.671"/>
    <path id="_43775888" d="m112.15 49.565 7.416-19.874 2.375 19.874h-9.79zm-8.01 18.987h20.172l3.563 28.48h36.488l16.91-52.213 8.309 52.213h19.283l21.359-55.179 3.561 55.179h21.359l-5.934-96.119h-25.514l-19.88 50.727-7.715-50.727h-22.842l-26.105 78.912-9.791-78.912h-28.48l-31.744 79.8 4.154-31.149h-38.571l-2.672 18.987h16.912l-1.188 6.526c-2.967 1.778-9.789 2.076-12.459 2.076s-22.545-1.779-21.656-23.14c0.882-21.358 29.362-41.234 63.181-30.258l3.266-20.47c-22.548-7.712-81.766-3.396-87.815 49.543-3.559 31.149 24.921 45.983 43.906 45.688 10.977 0.594 23.438-3.561 27.887-5.935l-1.482 4.451h22.547l10.977-28.48z"/>
    <path id="_44102912" d="m464.58 0.028c-15.428-0.594-37.678 8.306-45.094 44.204-7.416 35.894 12.459 50.431 30.852 52.804 18.396 2.373 44.205-9.196 48.951-43.609 4.75-34.414-12.17-52.508-34.71-53.399zm-2.37 20.47c6.229 0 19.578 4.154 16.314 29.071-3.262 24.92-18.688 27.887-24.326 27.293-5.637-0.594-17.207-4.448-13.943-27.293 3.27-22.841 15.43-29.368 21.96-29.071z"/>
    <path id="_44104296" d="m370.83 37.706h12.461c9.197 0 10.977-5.934 11.271-8.305 0.297-2.375-2.371-7.122-7.117-7.122h-14.537l-2.07 15.427zm-5.34 37.971h16.912c9.195 0 11.271-7.119 11.566-9.493 0.299-2.373-2.371-7.118-7.117-7.118h-18.986l-2.37 16.611zm-24.91 21.361 13.35-96.118h40.938c9.793 0 24.031 11.274 22.252 26.403-1.779 15.13-6.527 16.02-9.791 18.393 5.045 4.447 10.088 11.568 8.012 24.918-2.078 13.352-13.055 26.403-32.338 26.403l-42.42 0.001z"/>
  </g>
  <g transform="matrix(1, 0, 0, 1, 4.734398, 0)">
    <path id="path12" d="M 37.435 39.281 L 33.02 39.281 L 22.615 56.8 L 35.003 56.8 L 35.003 52.916 L 29.954 52.916 L 35.003 43.86 L 42.322 56.821 L 47.964 56.821 L 47.964 56.78 L 56.774 56.78 C 64.399 56.78 68.222 53.836 68.222 48.011 C 68.222 47.009 68.099 46.069 67.833 45.19 L 74.865 56.781 L 78.238 56.781 L 88.357 39.303 L 83.001 39.303 L 76.683 50.749 L 70.019 39.302 L 64.255 39.302 L 65.849 41.918 C 63.99 40.16 61.311 39.302 57.816 39.302 L 46.225 39.302 L 46.225 53.835 L 37.435 39.281 L 37.435 39.281 Z M 51.213 43.246 L 57.858 43.246 C 61.311 43.246 63.069 44.759 63.069 47.784 C 63.069 49.604 62.518 50.933 61.475 51.627 C 60.473 52.343 58.572 52.69 55.915 52.69 L 51.234 52.69 L 51.234 43.246 L 51.213 43.246 Z" style="fill-opacity: 1; fill: rgb(255, 255, 255);"/>
    <polygon id="polygon14" points="95.818 39.281 91.382 39.281 81.017 56.799 86.251 56.799 86.251 56.758 93.405 56.758 93.405 52.854 88.398 52.854 93.365 43.84 100.683 56.799 106.386 56.799 106.386 56.758 109.289 56.758 109.289 46.19 122.515 56.758 125.949 56.758 125.949 39.281 121.37 39.281 121.37 49.726 108.021 39.281 104.607 39.281 104.607 53.815" style="fill-opacity: 1; fill: rgb(255, 255, 255);"/>
    <path id="path16" d="M 128.566 40.261 C 127.85 40.896 127.483 42.04 127.483 43.676 L 127.483 52.343 C 127.483 54.019 127.85 55.164 128.545 55.798 C 129.22 56.432 130.446 56.759 132.246 56.759 L 142.528 56.759 C 144.307 56.759 145.594 56.432 146.269 55.798 C 146.943 55.165 147.332 54.019 147.332 52.343 L 147.332 49.91 L 142.283 49.829 L 142.283 52.527 L 132.511 52.527 L 132.511 43.349 L 142.283 43.349 L 142.283 45.741 L 147.332 45.741 L 147.332 43.676 C 147.332 41.959 146.944 40.814 146.269 40.261 C 145.594 39.587 144.409 39.26 142.528 39.26 L 132.246 39.26 C 130.467 39.281 129.24 39.588 128.566 40.261 L 128.566 40.261 Z" style="fill-opacity: 1; fill: rgb(255, 255, 255);"/>
    <polygon id="polygon18" points="154.057 45.761 154.057 43.246 167.691 43.246 167.691 39.281 149.008 39.281 149.008 56.758 167.916 56.758 167.916 52.711 154.057 52.711 154.057 49.604 162.05 49.604 162.05 45.761" style="fill-opacity: 1; fill: rgb(255, 255, 255);"/>
  </g>
</svg>