<?xml version="1.0" encoding="utf-8"?>
<svg version="1.1" xmlns="http://www.w3.org/2000/svg">
  <g>
    <path fill-rule="evenodd" clip-rule="evenodd" d="M 599.951 192.599 C 600.062 191.162 599.951 189.674 599.951 188.471 C 599.969 160.949 599.972 133.43 599.945 105.908 C 599.942 104.48 599.867 103.001 599.501 101.63 C 591.559 71.81 577.178 45.824 553.356 25.725 C 533.794 9.226 511.325 0.022 485.435 0.028 C 417.202 0.04 348.969 0.031 280.733 0.031 C 188.893 0.031 97.057 0.031 5.221 0.043 C 3.525 0.043 1.83 -0.044 0 0.043 C 0 21.084 0 41.882 0 62.593 C 1.284 63.094 2.4 63.598 3.558 63.967 C 12.001 66.664 20.45 69.335 28.899 72.011 C 113.973 98.945 199.046 125.878 284.12 152.821 C 324.297 165.546 364.462 178.315 404.652 191.006 C 407.175 191.801 409.857 192.542 412.467 192.545 C 473.59 192.629 534.712 192.611 595.834 192.599 C 597.034 192.599 598.513 192.71 599.951 192.599 Z M 363.088 188.633 C 308.3 171.267 253.952 154.042 198.926 136.602 C 198.926 217.628 198.926 297.847 198.926 378.201 C 175.245 390.146 151.906 401.919 128.728 413.611 C 128.728 437.596 128.728 461.13 128.728 484.895 C 224.591 484.895 320.154 484.895 415.981 484.895 C 415.981 438.73 415.981 392.846 415.981 346.356 C 398.288 346.356 380.862 346.356 363.088 346.356 C 363.088 293.53 363.088 241.312 363.088 188.633 Z M 381.684 207.517 C 381.684 248.111 381.684 288.432 381.684 329.029 C 454.442 329.029 526.923 329.029 599.684 329.029 C 599.684 288.435 599.684 248.114 599.684 207.517 C 526.926 207.517 454.445 207.517 381.684 207.517 Z" id="path7" style="fill-opacity: 1; fill: rgb(255, 255, 255);"/>
    <path fill-rule="evenodd" clip-rule="evenodd" d="M 599.951 192.599 L 409.419 192.545 L 0 62.794 C 0 62.794 0 21.084 0 0.04 C 1.83 -0.044 188.893 0.031 280.733 0.031 C 348.966 0.031 417.202 0.037 485.435 0.028 C 511.325 0.022 533.794 9.226 553.356 25.725 C 577.178 45.824 591.559 71.81 599.501 101.63 C 599.867 103.001 599.942 104.48 599.945 105.908 C 599.972 133.43 599.951 192.599 599.951 192.599 Z" id="path13" style="fill-opacity: 1; fill: rgb(255, 255, 255);"/>
    <path fill-rule="evenodd" clip-rule="evenodd" d="M 363.088 188.633 C 363.088 241.312 363.088 293.53 363.088 346.353 C 380.862 346.353 398.288 346.353 415.981 346.353 C 415.981 392.843 415.981 438.727 415.981 484.892 C 320.154 484.892 224.591 484.892 128.728 484.892 C 128.728 461.13 128.728 437.596 128.728 413.608 C 151.906 401.916 175.245 390.146 198.926 378.198 C 198.926 297.844 198.926 217.625 198.926 136.599 C 253.952 154.042 308.297 171.267 363.088 188.633 Z" id="path19" style="fill-opacity: 1; fill: rgb(255, 255, 255);"/>
  </g>
</svg>