<?xml version="1.0" encoding="utf-8"?>
<svg viewBox="0 0 200 40" xmlns="http://www.w3.org/2000/svg" xmlns:bx="https://boxy-svg.com">
  <path d="M 27.132 12.37 C 28.207 10.926 29.866 10 31.727 10 C 34.968 10 37.595 12.806 37.595 16.27 C 37.595 23.502 27.115 26.524 27.115 29.987 L 27.11 30 C 27.11 26.145 16.595 22.615 16.595 16.27 C 16.595 12.806 19.222 10 22.463 10 C 24.348 10 26.026 10.95 27.099 12.425 L 27.132 12.37" id="Shape" fill-rule="nonzero" style="fill: rgb(204, 204, 204);" bx:origin="0 0"/>
  <path d="M 54.165 17.77 L 53.355 22.24 L 48.495 22.24 L 47.295 29.2 L 41.595 29.2 L 44.895 10.45 L 56.595 10.45 L 55.005 15.25 L 49.725 15.25 L 49.305 17.77 L 54.165 17.77 Z M 60.225 26.23 L 59.055 29.2 L 53.055 29.2 L 60.945 10.45 L 69.765 10.45 L 71.085 29.2 L 65.055 29.2 L 64.935 26.23 L 60.225 26.23 Z M 64.485 16.21 L 64.185 16.21 L 62.085 21.46 L 64.485 21.46 L 64.485 16.21 Z M 80.625 22.36 L 85.155 10.45 L 91.185 10.45 L 83.475 29.2 L 75.135 29.2 L 74.025 10.45 L 80.355 10.45 L 80.355 22.36 L 80.625 22.36 Z M 97.395 16.72 L 97.395 16.72 L 96.015 24.52 L 98.385 24.52 L 98.385 24.52 C 99.165 24.52 99.745 24.427 100.125 24.24 L 100.125 24.24 L 100.125 24.24 C 100.505 24.047 100.755 23.61 100.875 22.93 L 100.875 22.93 L 102.255 15.13 L 99.855 15.13 L 99.855 15.13 C 99.095 15.13 98.525 15.223 98.145 15.41 L 98.145 15.41 L 98.145 15.41 C 97.765 15.603 97.515 16.04 97.395 16.72 Z M 100.845 10 L 100.845 10 L 100.845 10 C 103.385 10 105.195 10.497 106.275 11.49 L 106.275 11.49 L 106.275 11.49 C 107.355 12.477 107.895 14 107.895 16.06 L 107.895 16.06 L 107.895 16.06 C 107.895 18.12 107.568 20.277 106.915 22.53 L 106.915 22.53 L 106.915 22.53 C 106.268 24.777 105.238 26.523 103.825 27.77 L 103.825 27.77 L 103.825 27.77 C 102.418 29.023 100.358 29.65 97.645 29.65 L 97.645 29.65 L 97.645 29.65 C 94.938 29.65 93.045 29.157 91.965 28.17 L 91.965 28.17 L 91.965 28.17 C 90.885 27.177 90.345 25.65 90.345 23.59 L 90.345 23.59 L 90.345 23.59 C 90.345 22.61 90.485 21.317 90.765 19.71 L 90.765 19.71 L 90.765 19.71 C 91.045 18.097 91.415 16.707 91.875 15.54 L 91.875 15.54 L 91.875 15.54 C 92.335 14.367 92.955 13.35 93.735 12.49 L 93.735 12.49 L 93.735 12.49 C 95.235 10.83 97.605 10 100.845 10 Z M 122.385 22.96 L 124.365 29.2 L 118.095 29.2 L 116.715 23.62 L 115.485 23.62 L 114.525 29.2 L 108.825 29.2 L 112.125 10.45 L 121.125 10.45 L 121.125 10.45 C 124.545 10.45 126.255 11.98 126.255 15.04 L 126.255 15.04 L 126.255 15.04 C 126.255 16.3 126.065 17.5 125.685 18.64 L 125.685 18.64 L 125.685 18.64 C 124.985 20.8 123.885 22.24 122.385 22.96 L 122.385 22.96 Z M 118.095 15.25 L 116.955 15.25 L 116.295 19 L 117.615 19 L 117.615 19 C 118.295 19 118.808 18.927 119.155 18.78 L 119.155 18.78 L 119.155 18.78 C 119.508 18.627 119.748 18.197 119.875 17.49 L 119.875 17.49 L 119.875 17.49 C 120.008 16.777 120.075 16.34 120.075 16.18 L 120.075 16.18 L 120.075 16.18 C 120.075 15.78 119.922 15.523 119.615 15.41 L 119.615 15.41 L 119.615 15.41 C 119.302 15.303 118.795 15.25 118.095 15.25 L 118.095 15.25 Z M 132.255 29.2 L 126.555 29.2 L 129.855 10.45 L 135.555 10.45 L 132.255 29.2 Z M 151.695 10.45 L 150.825 15.25 L 146.685 15.25 L 144.255 29.2 L 138.555 29.2 L 140.985 15.25 L 136.875 15.25 L 137.745 10.45 L 151.695 10.45 Z M 164.205 17.77 L 163.425 22.12 L 157.725 22.12 L 157.335 24.4 L 164.325 24.4 L 163.485 29.2 L 150.795 29.2 L 154.095 10.45 L 166.635 10.45 L 165.075 15.25 L 158.925 15.25 L 158.505 17.77 L 164.205 17.77 Z M 166.155 28.87 L 166.155 28.87 L 167.835 23.92 L 167.835 23.92 C 169.515 24.38 171.055 24.61 172.455 24.61 L 172.455 24.61 L 172.455 24.61 C 173.855 24.61 174.985 24.55 175.845 24.43 L 175.845 24.43 L 176.085 22.93 L 173.595 22.69 L 173.595 22.69 C 171.695 22.51 170.348 22.08 169.555 21.4 L 169.555 21.4 L 169.555 21.4 C 168.768 20.72 168.375 19.76 168.375 18.52 L 168.375 18.52 L 168.375 18.52 C 168.375 17.98 168.435 17.38 168.555 16.72 L 168.555 16.72 L 168.555 16.72 C 169.015 14.16 169.848 12.4 171.055 11.44 L 171.055 11.44 L 171.055 11.44 C 172.268 10.48 174.145 10 176.685 10 L 176.685 10 L 176.685 10 C 179.225 10 181.465 10.25 183.405 10.75 L 183.405 10.75 L 181.845 15.55 L 181.845 15.55 C 180.105 15.25 178.705 15.1 177.645 15.1 L 177.645 15.1 L 177.645 15.1 C 176.585 15.1 175.685 15.15 174.945 15.25 L 174.945 15.25 L 174.705 16.72 L 176.715 16.93 L 176.715 16.93 C 178.755 17.15 180.205 17.637 181.065 18.39 L 181.065 18.39 L 181.065 18.39 C 181.925 19.137 182.355 20.14 182.355 21.4 L 182.355 21.4 L 182.355 21.4 C 182.355 22.68 182.075 24 181.515 25.36 L 181.515 25.36 L 181.515 25.36 C 181.235 26.06 180.928 26.647 180.595 27.12 L 180.595 27.12 L 180.595 27.12 C 180.268 27.587 179.848 27.983 179.335 28.31 L 179.335 28.31 L 179.335 28.31 C 178.828 28.643 178.365 28.893 177.945 29.06 L 177.945 29.06 L 177.945 29.06 C 177.525 29.233 176.995 29.36 176.355 29.44 L 176.355 29.44 L 176.355 29.44 C 175.415 29.58 174.265 29.65 172.905 29.65 L 172.905 29.65 L 172.905 29.65 C 170.425 29.65 168.175 29.39 166.155 28.87 Z" style="white-space: pre; fill: rgb(255, 255, 255);"/>
</svg>