<?xml version="1.0" encoding="utf-8"?>
<svg viewBox="0 0 200 40" xmlns="http://www.w3.org/2000/svg">
  <path d="M 46.99 26.23 L 45.82 29.2 L 39.82 29.2 L 47.71 10.45 L 56.53 10.45 L 57.85 29.2 L 51.82 29.2 L 51.7 26.23 L 46.99 26.23 Z M 51.25 16.21 L 50.95 16.21 L 48.85 21.46 L 51.25 21.46 L 51.25 16.21 Z M 72.07 24.4 L 71.23 29.2 L 59.83 29.2 L 63.13 10.45 L 68.83 10.45 L 66.37 24.4 L 72.07 24.4 Z M 84.85 24.4 L 84.01 29.2 L 72.61 29.2 L 75.91 10.45 L 81.61 10.45 L 79.15 24.4 L 84.85 24.4 Z M 101.59 23.68 L 101.59 23.68 L 101.74 22.87 L 100.3 22.87 L 101.11 18.28 L 107.98 18.28 L 106.21 28.3 L 106.21 28.3 C 103.77 29.2 101.32 29.65 98.86 29.65 L 98.86 29.65 L 98.86 29.65 C 96.4 29.65 94.623 29.16 93.53 28.18 L 93.53 28.18 L 93.53 28.18 C 92.443 27.2 91.9 25.69 91.9 23.65 L 91.9 23.65 L 91.9 23.65 C 91.9 22.79 92.04 21.52 92.32 19.84 L 92.32 19.84 L 92.32 19.84 C 92.92 16.36 93.98 13.85 95.5 12.31 L 95.5 12.31 L 95.5 12.31 C 97.02 10.77 99.54 10 103.06 10 L 103.06 10 L 103.06 10 C 103.8 10 104.743 10.08 105.89 10.24 L 105.89 10.24 L 105.89 10.24 C 107.043 10.4 107.89 10.58 108.43 10.78 L 108.43 10.78 L 106.78 15.37 L 106.78 15.37 C 105.28 15.09 103.903 14.95 102.65 14.95 L 102.65 14.95 L 102.65 14.95 C 101.403 14.95 100.51 15.05 99.97 15.25 L 99.97 15.25 L 99.97 15.25 C 99.43 15.45 99.11 15.85 99.01 16.45 L 99.01 16.45 L 97.54 24.94 L 99.43 24.94 L 99.43 24.94 C 100.11 24.94 100.613 24.867 100.94 24.72 L 100.94 24.72 L 100.94 24.72 C 101.273 24.567 101.49 24.22 101.59 23.68 Z M 114.4 26.23 L 113.23 29.2 L 107.23 29.2 L 115.12 10.45 L 123.94 10.45 L 125.26 29.2 L 119.23 29.2 L 119.11 26.23 L 114.4 26.23 Z M 118.66 16.21 L 118.36 16.21 L 116.26 21.46 L 118.66 21.46 L 118.66 16.21 Z M 134.59 20.11 L 132.64 29.2 L 126.7 29.2 L 131.08 10.45 L 138.52 10.45 L 139.06 19.99 L 139.27 19.99 L 143.17 10.45 L 150.61 10.45 L 148.39 29.2 L 142.42 29.2 L 143.68 20.11 L 143.47 20.11 L 139.72 29.2 L 135.37 29.2 L 134.74 20.11 L 134.59 20.11 Z M 164.98 17.77 L 164.2 22.12 L 158.5 22.12 L 158.11 24.4 L 165.1 24.4 L 164.26 29.2 L 151.57 29.2 L 154.87 10.45 L 167.41 10.45 L 165.85 15.25 L 159.7 15.25 L 159.28 17.77 L 164.98 17.77 Z M 166.93 28.87 L 166.93 28.87 L 168.61 23.92 L 168.61 23.92 C 170.29 24.38 171.83 24.61 173.23 24.61 L 173.23 24.61 L 173.23 24.61 C 174.63 24.61 175.76 24.55 176.62 24.43 L 176.62 24.43 L 176.86 22.93 L 174.37 22.69 L 174.37 22.69 C 172.47 22.51 171.123 22.08 170.33 21.4 L 170.33 21.4 L 170.33 21.4 C 169.543 20.72 169.15 19.76 169.15 18.52 L 169.15 18.52 L 169.15 18.52 C 169.15 17.98 169.21 17.38 169.33 16.72 L 169.33 16.72 L 169.33 16.72 C 169.79 14.16 170.623 12.4 171.83 11.44 L 171.83 11.44 L 171.83 11.44 C 173.043 10.48 174.92 10 177.46 10 L 177.46 10 L 177.46 10 C 180 10 182.24 10.25 184.18 10.75 L 184.18 10.75 L 182.62 15.55 L 182.62 15.55 C 180.88 15.25 179.48 15.1 178.42 15.1 L 178.42 15.1 L 178.42 15.1 C 177.36 15.1 176.46 15.15 175.72 15.25 L 175.72 15.25 L 175.48 16.72 L 177.49 16.93 L 177.49 16.93 C 179.53 17.15 180.98 17.637 181.84 18.39 L 181.84 18.39 L 181.84 18.39 C 182.7 19.137 183.13 20.14 183.13 21.4 L 183.13 21.4 L 183.13 21.4 C 183.13 22.68 182.85 24 182.29 25.36 L 182.29 25.36 L 182.29 25.36 C 182.01 26.06 181.703 26.647 181.37 27.12 L 181.37 27.12 L 181.37 27.12 C 181.043 27.587 180.623 27.983 180.11 28.31 L 180.11 28.31 L 180.11 28.31 C 179.603 28.643 179.14 28.893 178.72 29.06 L 178.72 29.06 L 178.72 29.06 C 178.3 29.233 177.77 29.36 177.13 29.44 L 177.13 29.44 L 177.13 29.44 C 176.19 29.58 175.04 29.65 173.68 29.65 L 173.68 29.65 L 173.68 29.65 C 171.2 29.65 168.95 29.39 166.93 28.87 Z" style="white-space: pre; fill: rgb(255, 255, 255);"/>
  <path d="M 34.759 23.013 C 34.64 22.566 34.375 22.23 33.968 22.004 L 30.429 19.999 L 33.968 17.993 C 34.375 17.769 34.64 17.431 34.759 16.985 C 34.879 16.538 34.823 16.113 34.593 15.716 L 33.741 14.282 C 33.511 13.884 33.167 13.625 32.71 13.508 C 32.253 13.392 31.822 13.444 31.413 13.672 L 27.875 15.664 L 27.875 11.665 C 27.875 11.214 27.706 10.824 27.369 10.493 C 27.033 10.164 26.633 10 26.172 10 L 24.469 10 C 24.008 10 23.61 10.164 23.272 10.493 C 22.935 10.824 22.766 11.214 22.766 11.665 L 22.766 15.664 L 19.227 13.671 C 18.819 13.444 18.387 13.392 17.93 13.508 C 17.474 13.625 17.131 13.884 16.899 14.282 L 16.048 15.716 C 15.817 16.113 15.762 16.538 15.882 16.985 C 16.003 17.431 16.265 17.769 16.673 17.993 L 20.213 19.999 L 16.673 22.004 C 16.265 22.23 16.002 22.566 15.882 23.013 C 15.762 23.46 15.817 23.884 16.048 24.282 L 16.899 25.715 C 17.131 26.115 17.473 26.373 17.93 26.491 C 18.387 26.607 18.819 26.553 19.227 26.328 L 22.766 24.334 L 22.766 28.332 C 22.766 28.784 22.935 29.173 23.272 29.505 C 23.61 29.834 24.008 30 24.469 30 L 26.172 30 C 26.633 30 27.033 29.834 27.369 29.505 C 27.706 29.173 27.875 28.784 27.875 28.332 L 27.875 24.336 L 31.413 26.328 C 31.821 26.553 32.253 26.608 32.71 26.491 C 33.167 26.373 33.511 26.115 33.741 25.715 L 34.593 24.282 C 34.823 23.884 34.879 23.46 34.759 23.013 Z" id="path4676" fill-rule="nonzero" style="fill: rgb(204, 204, 204);"/>
</svg>