<?xml version="1.0" encoding="UTF-8"?>
<svg xmlns="http://www.w3.org/2000/svg" xmlns:xlink="http://www.w3.org/1999/xlink" width="464pt" height="99pt" viewBox="0 0 464 99" version="1.1">
<g id="surface3">
<path style=" stroke:none;fill-rule:nonzero;fill:rgb(100%,100%,100%);fill-opacity:1;" d="M 169.429688 4.324219 C 173.292969 -0.621094 181.296875 -1.46875 186.039062 2.683594 C 187.980469 4.316406 189.339844 6.570312 190.035156 9 C 198.816406 39.21875 207.636719 69.425781 216.40625 99.652344 C 211.222656 99.660156 206.039062 99.644531 200.855469 99.660156 C 198.414062 91.324219 196.027344 82.980469 193.613281 74.636719 C 183.589844 74.617188 173.574219 74.632812 163.550781 74.628906 C 161.097656 82.964844 158.675781 91.308594 156.265625 99.660156 C 151.109375 99.644531 145.957031 99.660156 140.800781 99.652344 C 149.144531 70.824219 157.496094 41.996094 165.878906 13.171875 C 166.878906 10.15625 167.253906 6.785156 169.425781 4.320312 M 178.574219 22.84375 C 174.898438 35.363281 171.300781 47.90625 167.644531 60.433594 C 174.929688 60.464844 182.210938 60.445312 189.492188 60.445312 C 185.847656 47.910156 182.222656 35.375 178.574219 22.84375 Z M 178.574219 22.84375 "/>
<path style=" stroke:none;fill-rule:nonzero;fill:rgb(100%,100%,100%);fill-opacity:1;" d="M 278.609375 4.976562 C 281.3125 1.058594 286.53125 -0.84375 291.128906 0.367188 C 295.335938 1.335938 298.554688 4.960938 299.667969 9.046875 C 308.441406 39.246094 317.246094 69.433594 326.015625 99.636719 C 320.828125 99.675781 315.640625 99.636719 310.449219 99.65625 C 308.035156 91.316406 305.648438 82.96875 303.21875 74.628906 C 293.214844 74.632812 283.210938 74.613281 273.207031 74.636719 C 270.8125 82.980469 268.347656 91.308594 265.957031 99.65625 C 260.808594 99.660156 255.660156 99.648438 250.511719 99.660156 C 258.847656 70.671875 267.285156 41.707031 275.691406 12.734375 C 276.566406 10.113281 276.910156 7.230469 278.605469 4.96875 M 277.34375 60.441406 C 284.601562 60.453125 291.851562 60.445312 299.101562 60.445312 C 295.496094 47.886719 291.828125 35.34375 288.230469 22.78125 C 284.605469 35.335938 280.945312 47.878906 277.34375 60.441406 Z M 277.34375 60.441406 "/>
<path style=" stroke:none;fill-rule:nonzero;fill:rgb(100%,100%,100%);fill-opacity:1;" d="M 204.808594 0.214844 L 261.050781 0.214844 L 261.050781 15.386719 C 254.148438 15.390625 247.25 15.378906 240.347656 15.390625 C 240.347656 43.476562 240.355469 71.566406 240.34375 99.652344 L 225.511719 99.652344 C 225.511719 71.566406 225.507812 43.480469 225.515625 15.390625 C 218.613281 15.378906 211.714844 15.390625 204.808594 15.386719 C 204.808594 10.324219 204.800781 5.269531 204.808594 0.210938 Z M 204.808594 0.214844 "/>
<path style=" stroke:none;fill-rule:nonzero;fill:rgb(100%,100%,100%);fill-opacity:1;" d="M 342.503906 0.832031 C 343.929688 0.339844 345.449219 0.171875 346.957031 0.207031 C 352.867188 0.226562 358.777344 0.210938 364.6875 0.214844 C 374.644531 0.398438 384.144531 6.574219 388.453125 15.539062 C 391.4375 21.355469 391.746094 28.125 390.992188 34.507812 C 390.472656 41.191406 387.671875 47.875 382.535156 52.304688 C 379.824219 54.722656 376.441406 56.1875 373.539062 58.339844 C 371.945312 59.554688 371.863281 61.914062 372.6875 63.601562 C 380.535156 75.714844 388.691406 87.640625 396.699219 99.652344 C 390.84375 99.660156 384.984375 99.636719 379.125 99.660156 C 371.457031 88.140625 363.867188 76.5625 356.226562 65.023438 C 353.984375 61.742188 353.371094 57.394531 354.71875 53.644531 C 355.765625 50.769531 358.277344 48.667969 361.074219 47.582031 C 366.414062 45.546875 371.679688 42.34375 374.636719 37.304688 C 376.886719 33.515625 376.769531 28.84375 375.757812 24.699219 C 374.574219 19.316406 369.332031 15.082031 363.789062 15.269531 C 359.957031 15.292969 356.128906 15.25 352.304688 15.285156 C 350.570312 15.246094 348.941406 16.75 348.964844 18.503906 C 348.949219 45.554688 348.972656 72.609375 348.957031 99.65625 C 343.976562 99.648438 338.996094 99.65625 334.015625 99.652344 C 334.007812 70.53125 334.023438 41.410156 334.007812 12.289062 C 334.007812 7.1875 337.632812 2.386719 342.476562 0.835938 Z M 342.503906 0.832031 "/>
<path style=" stroke:none;fill-rule:nonzero;fill:rgb(100%,100%,100%);fill-opacity:1;" d="M 404.527344 0.214844 L 420.25 0.214844 C 420.246094 33.363281 420.261719 66.507812 420.242188 99.652344 C 415.007812 99.640625 409.769531 99.652344 404.527344 99.648438 Z M 404.527344 0.214844 "/>
<path style=" stroke:none;fill-rule:nonzero;fill:rgb(100%,100%,100%);fill-opacity:1;" d="M 44.339844 0.0117188 C 46.855469 0.00390625 49.375 0.0117188 51.890625 0.00390625 C 51.902344 5.925781 51.890625 11.847656 51.894531 17.769531 C 51.921875 22.710938 51.78125 27.652344 51.578125 32.589844 C 51.242188 39.722656 50.792969 46.867188 49.613281 53.914062 C 48.800781 58.773438 47.121094 63.460938 45.035156 67.910156 C 41.632812 75.082031 36.289062 81.148438 30.28125 86.25 C 24.90625 90.980469 18.492188 94.425781 11.746094 96.757812 C 7.925781 98.070312 4 99.085938 0 99.648438 C 0.00390625 94.683594 0.00390625 89.714844 0 84.75 C 4.816406 84.027344 9.441406 82.316406 13.742188 80.058594 C 18.84375 77.359375 23.4375 73.730469 27.300781 69.457031 C 31.292969 65.039062 34.472656 59.925781 36.890625 54.496094 C 39.730469 48.257812 41.253906 41.515625 42.289062 34.761719 C 43.585938 26.183594 44.125 17.5 44.324219 8.828125 C 44.355469 5.894531 44.328125 2.953125 44.339844 0.0195312 Z M 44.339844 0.0117188 "/>
<path style=" stroke:none;fill-rule:nonzero;fill:rgb(100%,100%,100%);fill-opacity:1;" d="M 54.929688 0.0234375 C 59.566406 -0.0078125 64.203125 0.015625 68.839844 0.0078125 C 68.839844 33.21875 68.839844 66.433594 68.839844 99.652344 C 64.214844 99.660156 59.585938 99.628906 54.964844 99.667969 C 54.90625 89.078125 54.953125 78.484375 54.9375 67.894531 C 54.933594 45.273438 54.949219 22.648438 54.929688 0.0273438 Z M 54.929688 0.0234375 "/>
<path style=" stroke:none;fill-rule:nonzero;fill:rgb(100%,100%,100%);fill-opacity:1;" d="M 71.933594 0.0078125 C 74.4375 0.0078125 76.941406 0.00390625 79.441406 0.0117188 C 79.359375 10.136719 79.707031 20.28125 80.914062 30.34375 C 81.902344 38.160156 83.292969 46.03125 86.40625 53.3125 C 89.355469 60.355469 93.609375 66.902344 99.152344 72.179688 C 104.441406 77.226562 110.855469 81.109375 117.824219 83.339844 C 119.769531 83.964844 121.757812 84.449219 123.777344 84.746094 C 123.773438 89.710938 123.773438 94.671875 123.777344 99.636719 C 119.804688 99.097656 115.910156 98.074219 112.121094 96.785156 C 107.609375 95.214844 103.246094 93.183594 99.234375 90.574219 C 96.308594 88.691406 93.648438 86.4375 91.089844 84.089844 C 86.875 80.203125 83.105469 75.78125 80.269531 70.78125 C 78.054688 66.886719 76.4375 62.679688 75.171875 58.382812 C 74.011719 54.070312 73.515625 49.613281 73.066406 45.175781 C 72.195312 35.59375 71.871094 25.960938 71.933594 16.339844 C 71.9375 10.894531 71.933594 5.449219 71.9375 0.0078125 Z M 71.933594 0.0078125 "/>
<path style=" stroke:none;fill-rule:nonzero;fill:rgb(100%,100%,100%);fill-opacity:1;" d="M 44.339844 0.0117188 C 44.328125 2.949219 44.355469 5.890625 44.324219 8.828125 C 44.125 17.5 43.585938 26.183594 42.289062 34.761719 C 41.253906 41.515625 39.730469 48.257812 36.890625 54.496094 C 34.472656 59.929688 31.292969 65.039062 27.300781 69.457031 C 23.4375 73.734375 18.84375 77.359375 13.742188 80.058594 C 9.441406 82.320312 4.816406 84.027344 0 84.75 C 0.00390625 89.714844 0.00390625 94.683594 0 99.648438 C 4 99.085938 7.925781 98.070312 11.746094 96.757812 C 18.492188 94.425781 24.90625 90.980469 30.28125 86.25 C 36.289062 81.148438 41.632812 75.082031 45.035156 67.910156 C 47.121094 63.460938 48.800781 58.773438 49.613281 53.914062 C 50.792969 46.867188 51.242188 39.722656 51.578125 32.589844 C 51.78125 27.652344 51.921875 22.710938 51.894531 17.769531 C 51.890625 11.84375 51.902344 5.921875 51.890625 0 C 49.375 0.0078125 46.855469 -0.00390625 44.339844 0.0078125 "/>
<path style=" stroke:none;fill-rule:nonzero;fill:rgb(100%,100%,100%);fill-opacity:1;" d="M 54.929688 0.0234375 C 54.949219 22.648438 54.933594 45.269531 54.9375 67.894531 C 54.957031 78.484375 54.90625 89.078125 54.964844 99.667969 C 59.589844 99.625 64.214844 99.65625 68.839844 99.648438 C 68.839844 66.4375 68.839844 33.222656 68.839844 0.0078125 C 64.203125 0.0195312 59.566406 -0.0078125 54.929688 0.0234375 "/>
<path style=" stroke:none;fill-rule:nonzero;fill:rgb(100%,100%,100%);fill-opacity:1;" d="M 71.933594 0.0078125 C 71.929688 5.449219 71.933594 10.894531 71.933594 16.339844 C 71.871094 25.960938 72.195312 35.589844 73.066406 45.175781 C 73.515625 49.613281 74.011719 54.066406 75.171875 58.382812 C 76.4375 62.675781 78.054688 66.886719 80.269531 70.78125 C 83.101562 75.78125 86.875 80.199219 91.089844 84.085938 C 93.648438 86.4375 96.308594 88.691406 99.234375 90.570312 C 103.246094 93.179688 107.609375 95.214844 112.121094 96.785156 C 115.910156 98.074219 119.804688 99.097656 123.777344 99.636719 C 123.773438 94.671875 123.773438 89.707031 123.777344 84.746094 C 121.753906 84.449219 119.769531 83.960938 117.824219 83.339844 C 110.855469 81.105469 104.441406 77.226562 99.152344 72.179688 C 93.609375 66.902344 89.355469 60.355469 86.40625 53.3125 C 83.292969 46.03125 81.902344 38.15625 80.914062 30.339844 C 79.707031 20.28125 79.359375 10.136719 79.441406 0.0078125 C 76.925781 0.0078125 74.421875 0.0117188 71.917969 0.015625 "/>
<path style=" stroke:none;fill-rule:nonzero;fill:rgb(100%,100%,100%);fill-opacity:1;" d="M 460.140625 81.292969 L 463.386719 81.292969 L 463.386719 99.667969 L 448.105469 87.214844 C 446.671875 86.042969 444.898438 84.683594 443.011719 84.683594 C 440.03125 84.683594 437.578125 87.328125 437.578125 90.269531 C 437.578125 93.175781 439.917969 95.554688 442.78125 95.742188 L 442.78125 99.289062 C 437.726562 98.722656 434.332031 95.441406 434.332031 90.269531 C 434.332031 85.441406 437.917969 81.289062 442.859375 81.289062 C 444.972656 81.289062 447.085938 82.082031 448.707031 83.402344 L 460.140625 92.761719 L 460.132812 81.292969 Z M 460.140625 81.292969 "/>
<path style=" stroke:none;fill-rule:nonzero;fill:rgb(100%,100%,100%);fill-opacity:1;" d="M 436.070312 65.023438 L 446.332031 72.609375 L 446.410156 72.535156 C 445.996094 71.703125 445.730469 70.761719 445.730469 69.742188 C 445.730469 65.0625 450.070312 61.515625 454.636719 61.515625 C 459.839844 61.515625 463.992188 65.742188 463.992188 70.914062 C 463.992188 75.816406 459.917969 80.386719 454.902344 80.386719 C 452.03125 80.386719 449.621094 78.949219 447.390625 77.292969 L 434.339844 67.589844 L 436.074219 65.023438 Z M 455.011719 64.910156 C 451.460938 64.910156 448.898438 67.929688 448.898438 70.949219 C 448.898438 74.042969 451.726562 76.988281 454.820312 76.988281 C 458.105469 76.988281 460.820312 74.195312 460.820312 70.949219 C 460.820312 67.777344 458.183594 64.910156 455.007812 64.910156 Z M 455.011719 64.910156 "/>
<path style=" stroke:none;fill-rule:nonzero;fill:rgb(100%,100%,100%);fill-opacity:1;" d="M 434.335938 46.054688 C 434.335938 54.203125 441.015625 60.832031 449.226562 60.832031 C 457.375 60.832031 464 54.203125 464 46.054688 C 464 37.671875 457.484375 31.101562 449.167969 31.101562 C 440.84375 31.101562 434.332031 37.671875 434.332031 46.054688 Z M 449.230469 34.59375 C 455.660156 34.59375 460.691406 39.710938 460.691406 46.238281 C 460.691406 52.359375 455.550781 57.339844 449.230469 57.339844 C 442.847656 57.339844 437.652344 52.359375 437.652344 46.238281 C 437.652344 39.597656 442.628906 34.59375 449.234375 34.59375 Z M 449.230469 34.59375 "/>
<path style=" stroke:none;fill-rule:nonzero;fill:rgb(100%,100%,100%);fill-opacity:1;" d="M 434.335938 14.984375 C 434.335938 23.132812 441.015625 29.761719 449.226562 29.761719 C 457.375 29.761719 464 23.132812 464 14.984375 C 464 6.597656 457.484375 0.03125 449.167969 0.03125 C 440.84375 0.03125 434.332031 6.597656 434.332031 14.984375 Z M 449.230469 3.523438 C 455.660156 3.523438 460.691406 8.636719 460.691406 15.164062 C 460.691406 21.289062 455.550781 26.265625 449.230469 26.265625 C 442.847656 26.265625 437.652344 21.289062 437.652344 15.164062 C 437.652344 8.527344 442.628906 3.523438 449.234375 3.523438 Z M 449.230469 3.523438 "/>
</g>
</svg>
