<?xml version="1.0" encoding="utf-8"?>
<svg version="1.1" id="TEXT" x="0px" y="0px" enable-background="new 0 -0.001 566.929 157.78" xmlns="http://www.w3.org/2000/svg">
  <polygon points="175.563 8.061 192.25 8.165 200 0.104 171.448 0 144.62 26.933 140.863 27.14 140.968 1.23 125.885 16.624 122.277 17.052 122.277 1.366 91.395 31.92 87.556 32.329 87.882 0.891 60.893 28.296 57.348 28.313 56.933 1.994 42.372 16.659 38.322 16.866 38.475 1.207 0 39.993 12.672 39.786 29.287 23.66 32.474 23.66 32.32 39.863 45.554 26.32 48.718 26.32 48.718 40.116 34.154 54.575 48.111 54.368 75.571 26.597 79.27 26.597 79.27 40.24 96.386 40.344 112.938 23.688 116.133 23.481 116.084 39.226 129.31 25.999 132.435 25.999 132.642 39.337 132.372 40.031 172.336 40.031 179.987 32.277 155.139 31.854 154.913 28.248 158.785 24.17 168.16 24.169 176.304 15.92 171.381 15.712 171.381 12.241" id="polygon8" style="fill-opacity: 1; fill: rgb(255, 255, 255);"/>
</svg>